<svg width="68" height="53" viewBox="0 0 68 53" fill="none" xmlns="http://www.w3.org/2000/svg">
<g clip-path="url(#clip0_4_2)">
<path d="M25.2934 0.0129871C25.1766 0.0235672 24.8684 0.0711708 24.6028 0.118776C21.9678 0.584246 19.6462 2.64712 18.0206 5.98475C17.6753 6.68824 17.585 6.98973 17.33 8.28564C16.9581 10.1422 16.8041 12.1046 16.8784 13.9453C16.9262 15.0032 16.9422 15.1196 17.245 16.9867C17.5159 18.6529 17.5637 18.965 17.5691 19.2718C17.5744 19.4093 17.6009 19.2771 17.6222 18.9703C17.7072 17.923 17.84 17.3729 18.4828 15.3735C18.6741 14.7758 18.9291 13.9771 19.0512 13.6015C19.8747 10.978 21.2559 8.3597 22.43 7.19602C23.8112 5.82606 25.1128 5.37117 26.4887 5.76788C27.5884 6.08524 28.4703 6.63534 30.0216 7.96299C30.3137 8.21688 30.6378 8.48664 30.7387 8.57127C30.8397 8.6559 31.2647 9.03145 31.6791 9.407C32.7309 10.3644 33.2834 10.7823 33.8997 11.089C34.5637 11.4223 34.9037 11.5069 35.7113 11.5492C36.9544 11.6127 37.4591 11.3535 37.9797 10.3961C38.2984 9.81958 38.41 9.39642 38.41 8.73524C38.41 8.04762 38.3197 7.73025 37.8894 6.85221C36.8694 4.81049 35.0525 3.16548 32.1678 1.67916C30.8078 0.975662 29.2619 0.425562 28.0294 0.192827C27.8381 0.161091 27.5672 0.108196 27.4184 0.0817509C27.1316 0.0235672 25.6334 -0.0240383 25.2934 0.0129871Z" fill="black"/>
<path d="M47.3934 2.12884C46.8516 2.23463 46.6497 2.28752 46.3044 2.3986C44.7956 2.90109 43.5738 3.92724 42.8831 5.27075C42.3678 6.28103 42.1925 7.12205 42.2775 8.13762C42.4316 9.95189 43.5844 11.7397 45.1409 12.5913C46.1238 13.1255 47.0747 13.3741 48.1638 13.3741C49.2422 13.3741 50.0709 13.1837 50.9688 12.7341C52.5094 11.9566 53.4975 10.7136 54.0181 8.87814C54.1722 8.32804 54.1881 7.22255 54.0394 6.67245C53.8322 5.87904 53.5347 5.23902 53.0353 4.51437C52.2119 3.31367 50.6394 2.37744 49.0669 2.15C48.7322 2.10239 47.6059 2.08652 47.3934 2.12884Z" fill="black"/>
<path d="M67.4481 12.3427C67.3525 12.8452 67.1984 13.2313 66.6884 14.2522C66.0084 15.5957 65.2806 16.7646 64.4625 17.7908C63.2034 19.3829 60.2816 21.7737 58.4647 22.6994C57.6838 23.0961 57.365 23.2019 56.9241 23.2019C56.0528 23.2019 55.1497 22.6729 54.2731 21.6415C53.7472 21.0279 53.4922 20.4937 52.7325 18.4414C52.0366 16.5583 51.4203 15.5375 50.6341 14.9609C50.2038 14.6489 49.9859 14.5378 49.5025 14.4161C49.1466 14.3262 49.0509 14.3209 48.7588 14.3738C48.3284 14.4532 47.9194 14.7176 47.4838 15.1937C46.6763 16.077 46.3203 17.1613 46.3734 18.5472C46.4053 19.3194 46.4744 19.695 46.7347 20.5254C47.6431 23.4134 49.4866 25.836 52.095 27.5762C52.5997 27.9147 52.8388 28.0311 53.3381 28.2004C54.5122 28.5918 56.0422 28.5971 57.3013 28.2057C59.0756 27.6608 61.3441 26.2115 62.9591 24.6036C64.4094 23.1595 65.3763 21.7208 66.4069 19.4887C67.3844 17.3676 67.7244 16.3309 67.9581 14.7441C67.9741 14.6171 67.9581 13.9454 67.9209 13.2525L67.8519 11.9883H67.6819C67.5172 11.9883 67.5119 11.9936 67.4481 12.3427Z" fill="black"/>
<path d="M22.3184 21.8636C21.5853 21.9483 20.8309 22.2709 20.4538 22.6517C20.1881 22.9268 19.8375 23.5986 19.71 24.0746C19.4072 25.2224 19.6834 26.6717 20.4006 27.6608C20.6875 28.0681 21.1231 28.5071 22.0209 29.3058C22.7169 29.9247 22.7222 29.93 22.6266 30.0411C21.4313 31.4375 18.0525 34.9285 14.9819 37.9382C11.0453 41.8047 9.36657 43.4974 6.14719 46.8614C5.31844 47.7289 3.92126 49.12 3.03938 49.9505C1.57313 51.3363 -0.0365551 52.9337 0.000632389 52.9654C0.00594489 52.976 0.202507 52.9337 0.436257 52.8702C1.22782 52.6639 3.99563 51.093 9.70126 47.6125C12.0069 46.2055 12.57 45.8723 17.5106 42.9843C21.4631 40.6728 22.1431 40.2602 23.6731 39.2605C25.1234 38.3084 25.745 37.8588 26.4091 37.277C27.0413 36.7322 27.275 36.5523 28.5341 35.6584C29.06 35.2829 29.6178 34.8756 29.7772 34.7487L30.0588 34.5212L30.6538 34.828C31.3869 35.2141 32.0244 35.6214 32.5556 36.0499C33.1666 36.5365 33.2197 36.6158 33.2622 37.0813C33.2994 37.4463 33.2888 37.4886 33.1506 37.7266C32.9169 38.1339 32.0031 39.0013 31.3975 39.4033C31.1 39.5991 30.1438 40.128 29.2725 40.5723C28.3959 41.0166 26.9084 41.7942 25.9575 42.2967C23.2428 43.7248 20.73 44.9308 19.0778 45.5867C18.1906 45.9411 17.0059 46.5758 17.0856 46.6499C17.1016 46.6657 17.3778 46.6975 17.6966 46.7239C18.3181 46.7715 19.4391 46.7345 20.5016 46.6393C20.8575 46.6075 21.4259 46.5546 21.7606 46.5229C23.5138 46.3695 24.7144 46.1526 26.2497 45.7295C27.4503 45.3963 27.6363 45.3434 29.1716 44.9414C32.1253 44.1585 33.6978 43.6296 35.1747 42.9049C37.4909 41.773 39.4566 39.9323 40.28 38.1339C40.5722 37.4992 40.62 37.3299 40.62 36.9014C40.62 36.3672 40.4606 35.7695 40.1472 35.1295C39.8125 34.4419 39.5681 34.0928 38.7659 33.0931C37.2997 31.2788 36.0034 29.9459 34.3247 28.5283C33.9475 28.2056 33.4056 27.7349 33.1294 27.481C31.5941 26.074 28.9378 24.1487 27.5778 23.4557C26.9722 23.149 24.7197 22.2233 24.2044 22.0699C23.8856 21.9694 22.8922 21.8266 22.6372 21.8372C22.5522 21.8372 22.4088 21.853 22.3184 21.8636Z" fill="black"/>
</g>
<defs>
<clipPath id="clip0_4_2">
<rect width="68" height="53" fill="white"/>
</clipPath>
</defs>
</svg>
