<svg width="34" height="51" viewBox="0 0 34 51" fill="none" xmlns="http://www.w3.org/2000/svg">
<g clip-path="url(#clip0_1_25)">
<path d="M15.1125 39.8011C6.76585 39.8011 0 33.1301 0 24.9005C0 16.671 6.76585 10 15.1125 10C23.4591 10 30.2249 16.671 30.2249 24.9005C30.2249 33.1301 23.4591 39.8011 15.1125 39.8011ZM7.57587 34.2223C9.71511 35.9086 12.3736 36.8253 15.1125 36.821C18.0896 36.821 20.8144 35.7601 22.9211 34.0018C21.9368 33.0061 20.7601 32.215 19.4604 31.6755C18.1607 31.136 16.7644 30.859 15.3543 30.8608C13.8923 30.8591 12.4459 31.1571 11.1068 31.7357C9.76783 32.3144 8.56541 33.1612 7.57587 34.2223ZM5.46466 32.0826C6.7348 30.7536 8.26753 29.6951 9.96839 28.9724C11.6692 28.2498 13.5022 27.8782 15.3543 27.8807C17.14 27.8784 18.9087 28.2239 20.5586 28.8974C22.2085 29.571 23.7073 30.5592 24.9688 31.8055C26.2625 30.0101 27.0266 27.8965 27.1761 25.6991C27.3256 23.5017 26.8548 21.3064 25.8158 19.3567C24.7769 17.4071 23.2105 15.7794 21.2904 14.6541C19.3703 13.5288 17.1715 12.9501 14.9381 12.982C12.7046 13.0139 10.5238 13.6552 8.63755 14.8349C6.75131 16.0145 5.23338 17.6863 4.25218 19.6648C3.27098 21.6433 2.86486 23.8511 3.07888 26.0433C3.29291 28.2356 4.11871 30.3265 5.46466 32.0841V32.0826ZM15.1125 26.3906C13.5092 26.3906 11.9717 25.7627 10.838 24.6449C9.70435 23.5271 9.06747 22.0111 9.06747 20.4304C9.06747 18.8496 9.70435 17.3336 10.838 16.2159C11.9717 15.0981 13.5092 14.4702 15.1125 14.4702C16.7157 14.4702 18.2532 15.0981 19.3869 16.2159C20.5206 17.3336 21.1574 18.8496 21.1574 20.4304C21.1574 22.0111 20.5206 23.5271 19.3869 24.6449C18.2532 25.7627 16.7157 26.3906 15.1125 26.3906ZM15.1125 23.4105C15.9141 23.4105 16.6829 23.0965 17.2497 22.5376C17.8165 21.9788 18.1349 21.2208 18.1349 20.4304C18.1349 19.64 17.8165 18.882 17.2497 18.3231C16.6829 17.7642 15.9141 17.4503 15.1125 17.4503C14.3108 17.4503 13.5421 17.7642 12.9752 18.3231C12.4084 18.882 12.09 19.64 12.09 20.4304C12.09 21.2208 12.4084 21.9788 12.9752 22.5376C13.5421 23.0965 14.3108 23.4105 15.1125 23.4105Z" fill="black"/>
</g>
<defs>
<clipPath id="clip0_1_25">
<rect width="33.1499" height="50.344" fill="white" transform="translate(0.0750732 0.0788574)"/>
</clipPath>
</defs>
</svg>
