<svg width="35" height="35" viewBox="0 0 35 35" fill="none" xmlns="http://www.w3.org/2000/svg">
<g clip-path="url(#clip0_1_18)">
<path d="M10.0414 11.4783V8.60872C10.0414 6.70608 10.7971 4.88137 12.1422 3.536C13.4873 2.19063 15.3116 1.43481 17.2139 1.43481C19.1161 1.43481 20.9404 2.19063 22.2855 3.536C23.6306 4.88137 24.3863 6.70608 24.3863 8.60872V11.4783H28.6898C29.0702 11.4783 29.4351 11.6294 29.7041 11.8985C29.9731 12.1676 30.1242 12.5325 30.1242 12.9131V30.1304C30.1242 30.511 29.9731 30.8759 29.7041 31.145C29.4351 31.4141 29.0702 31.5652 28.6898 31.5652H5.73795C5.3575 31.5652 4.99264 31.4141 4.72362 31.145C4.4546 30.8759 4.30347 30.511 4.30347 30.1304V12.9131C4.30347 12.5325 4.4546 12.1676 4.72362 11.8985C4.99264 11.6294 5.3575 11.4783 5.73795 11.4783H10.0414ZM10.0414 14.3478H7.17244V28.6957H27.2553V14.3478H24.3863V17.2174H21.5173V14.3478H12.9104V17.2174H10.0414V14.3478ZM12.9104 11.4783H21.5173V8.60872C21.5173 7.46714 21.0639 6.37231 20.2569 5.56509C19.4498 4.75787 18.3552 4.30438 17.2139 4.30438C16.0725 4.30438 14.9779 4.75787 14.1708 5.56509C13.3638 6.37231 12.9104 7.46714 12.9104 8.60872V11.4783Z" fill="#131212"/>
</g>
<defs>
<clipPath id="clip0_1_18">
<rect width="34.4277" height="34.4348" fill="white"/>
</clipPath>
</defs>
</svg>
