<svg width="46" height="39" viewBox="0 0 46 39" fill="none" xmlns="http://www.w3.org/2000/svg">
<path d="M17.0346 0.00943451C16.9559 0.0170451 16.7484 0.0512928 16.5695 0.0855404C14.7949 0.420406 13.2314 1.90447 12.1365 4.30561C11.904 4.81172 11.8432 5.02862 11.6714 5.96092C11.421 7.29658 11.3172 8.70834 11.3673 10.0326C11.3995 10.7936 11.4102 10.8774 11.6142 12.2206C11.7966 13.4193 11.8288 13.6438 11.8324 13.8645C11.836 13.9635 11.8539 13.8683 11.8682 13.6476C11.9255 12.8942 12.0149 12.4984 12.4478 11.06C12.5766 10.63 12.7484 10.0554 12.8307 9.78524C13.3852 7.89781 14.3155 6.01419 15.1062 5.17703C16.0364 4.19145 16.913 3.8642 17.8397 4.1496C18.5803 4.37791 19.1742 4.77366 20.2189 5.72879C20.4157 5.91145 20.634 6.10552 20.702 6.1664C20.7699 6.22729 21.0562 6.49746 21.3352 6.76764C22.0437 7.4564 22.4157 7.75702 22.8308 7.97772C23.278 8.21746 23.507 8.27834 24.0508 8.30878C24.8881 8.35445 25.228 8.16799 25.5786 7.47923C25.7933 7.06445 25.8684 6.76003 25.8684 6.28437C25.8684 5.78968 25.8076 5.56136 25.5178 4.92968C24.8308 3.46084 23.6072 2.27739 21.6644 1.2081C20.7485 0.701998 19.7073 0.306248 18.8772 0.138815C18.7484 0.115983 18.566 0.0779298 18.4658 0.0589034C18.2726 0.0170451 17.2636 -0.0172026 17.0346 0.00943451Z" fill="white"/>
<path d="M31.9185 1.53185C31.5536 1.60795 31.4176 1.646 31.185 1.72591C30.1689 2.08741 29.346 2.82563 28.8809 3.79217C28.5338 4.51897 28.4158 5.12401 28.473 5.85462C28.5768 7.15982 29.3532 8.446 30.4015 9.05865C31.0634 9.44298 31.7038 9.62183 32.4373 9.62183C33.1636 9.62183 33.7218 9.48484 34.3264 9.16139C35.364 8.60202 36.0295 7.70778 36.3801 6.38736C36.4839 5.99161 36.4946 5.19631 36.3944 4.80056C36.2549 4.22977 36.0545 3.76934 35.7182 3.24802C35.1636 2.38422 34.1046 1.71069 33.0455 1.54707C32.8201 1.51282 32.0616 1.5014 31.9185 1.53185Z" fill="white"/>
<path d="M45.425 8.87985C45.3606 9.24135 45.2568 9.51913 44.9134 10.2536C44.4554 11.2201 43.9652 12.0611 43.4142 12.7993C42.5663 13.9447 40.5985 15.6647 39.3748 16.3306C38.8489 16.616 38.6342 16.6921 38.3373 16.6921C37.7505 16.6921 37.1423 16.3116 36.5519 15.5696C36.1977 15.1281 36.026 14.7438 35.5143 13.2673C35.0456 11.9127 34.6306 11.1782 34.1011 10.7635C33.8113 10.539 33.6646 10.459 33.339 10.3715C33.0993 10.3068 33.0349 10.303 32.8381 10.3411C32.5483 10.3982 32.2728 10.5884 31.9794 10.9309C31.4356 11.5664 31.1958 12.3465 31.2316 13.3435C31.2531 13.899 31.2996 14.1692 31.4749 14.7666C32.0867 16.8443 33.3283 18.5871 35.085 19.8391C35.4249 20.0826 35.5859 20.1663 35.9222 20.2881C36.7129 20.5697 37.7433 20.5735 38.5913 20.2919C39.7863 19.9 41.314 18.8573 42.4017 17.7005C43.3785 16.6617 44.0296 15.6266 44.7237 14.0208C45.3821 12.4949 45.611 11.749 45.7685 10.6074C45.7792 10.5161 45.7685 10.0328 45.7434 9.53436L45.6969 8.62489H45.5824C45.4715 8.62489 45.4679 8.6287 45.425 8.87985Z" fill="white"/>
<path d="M15.031 15.7294C14.5373 15.7902 14.0292 16.0224 13.7752 16.2963C13.5963 16.4942 13.3602 16.9775 13.2743 17.32C13.0704 18.1457 13.2564 19.1884 13.7394 19.9C13.9326 20.193 14.226 20.5088 14.8307 21.0834C15.2994 21.5286 15.3029 21.5324 15.2385 21.6124C14.4335 22.617 12.158 25.1285 10.09 27.2937C7.4388 30.0754 6.3082 31.2931 4.14001 33.7132C3.58187 34.3373 2.64089 35.3381 2.04696 35.9355C1.05947 36.9325 -0.0246191 38.0817 0.000425901 38.1045C0.00400376 38.1122 0.136385 38.0817 0.293811 38.0361C0.826912 37.8876 2.69098 36.7575 6.5336 34.2536C8.0864 33.2414 8.46565 33.0016 11.7931 30.9239C14.455 29.261 14.913 28.9642 15.9434 28.245C16.9201 27.56 17.3387 27.2366 17.786 26.818C18.2117 26.4261 18.3692 26.2967 19.2171 25.6536C19.5713 25.3834 19.947 25.0904 20.0543 24.9991L20.244 24.8355L20.6447 25.0562C21.1384 25.3339 21.5678 25.627 21.9256 25.9352C22.337 26.2853 22.3728 26.3424 22.4014 26.6772C22.4265 26.9398 22.4193 26.9702 22.3263 27.1415C22.1689 27.4345 21.5535 28.0585 21.1456 28.3477C20.9452 28.4885 20.3012 28.8691 19.7144 29.1887C19.1241 29.5084 18.1223 30.0677 17.4819 30.4292C15.6536 31.4567 13.9612 32.3243 12.8485 32.7961C12.251 33.0511 11.4532 33.5077 11.5068 33.561C11.5176 33.5724 11.7036 33.5953 11.9183 33.6143C12.3369 33.6485 13.0918 33.6219 13.8074 33.5534C14.0471 33.5306 14.4299 33.4925 14.6554 33.4697C15.836 33.3593 16.6446 33.2033 17.6786 32.8989C18.4872 32.6592 18.6125 32.6211 19.6465 32.3319C21.6358 31.7687 22.6948 31.3882 23.6895 30.8669C25.2494 30.0525 26.5732 28.7283 27.1278 27.4345C27.3246 26.9778 27.3568 26.8561 27.3568 26.5478C27.3568 26.1635 27.2494 25.7335 27.0383 25.2731C26.8129 24.7784 26.6483 24.5272 26.1081 23.808C25.1206 22.5028 24.2476 21.5439 23.117 20.524C22.863 20.2919 22.498 19.9532 22.312 19.7706C21.278 18.7584 19.489 17.3732 18.5731 16.8748C18.1652 16.654 16.6482 15.9881 16.3012 15.8778C16.0865 15.8055 15.4174 15.7027 15.2457 15.7103C15.1885 15.7103 15.0919 15.7217 15.031 15.7294Z" fill="white"/>
</svg>
